# xmcd
#
# Track frame offsets:
#	150
#	9724
#	20586
#	34555
#	45414
#	55542
#	68120
#	82898
#	92877
#	105134
#	118024
#	130808
#	143573
#	156859
#	168450
#	184252
#	196691
#	209772
#	223972
#	236746
#	249613
#	261409
#	273885
#	287079
#	301278
#	312506
#	325671
#
# Disc length: 4466 seconds
#
# Revision: 0
# Processed by: cddbd v1.4PL0 Copyright (c) Steve Scherf et al.
# Submitted via: audiograbber 1.80
#
DISCID=7f11701b
DTITLE=Merle Haggard - Down Every Road [CD2)
DYEAR=1900
DGENRE=
TTITLE0=Legend of bonnie and clyde, the 
TTITLE1=I started loving you again
TTITLE2=Is this the beginning of the end
TTITLE3=I'll always know
TTITLE4=Mama tried
TTITLE5=In the good old days (when times were bad)
TTITLE6=Teach me to forget
TTITLE7=I'm looking for my mind
TTITLE8=Day the rains came, the
TTITLE9=California blues (blue yodel)
TTITLE10=I take a lot of pride in what i am
TTITLE11=I'm bringin' home good news
TTITLE12=I can't hold myself in line
TTITLE13=It meant goodbye to me when you said hello to him
TTITLE14=Hungry eyes
TTITLE15=Silver wings
TTITLE16=Waitin' for a train
TTITLE17=Jimmie rodgers' last blue yodel (the women make a fool out of me)
TTITLE18=California cottonfields
TTITLE19=White line fever
TTITLE20=Workin' man blues
TTITLE21=Okie from muskogee
TTITLE22=I can't stop loving you
TTITLE23=Hunstville
TTITLE24=Irma jackson
TTITLE25=Fightin' side of me, the
TTITLE26=I'll be a hero (when i strike)
EXTD=
EXTT0=
EXTT1=
EXTT2=
EXTT3=
EXTT4=
EXTT5=
EXTT6=
EXTT7=
EXTT8=
EXTT9=
EXTT10=
EXTT11=
EXTT12=
EXTT13=
EXTT14=
EXTT15=
EXTT16=
EXTT17=
EXTT18=
EXTT19=
EXTT20=
EXTT21=
EXTT22=
EXTT23=
EXTT24=
EXTT25=
EXTT26=
PLAYORDER=
